<?xml version="1.0" encoding="UTF-8"?>
<svg id="Capa_2" data-name="Capa 2" xmlns="http://www.w3.org/2000/svg" xmlns:xlink="http://www.w3.org/1999/xlink" viewBox="0 0 7687.73 10250.39">
  <defs>
    <linearGradient id="Degradado_sin_nombre_2" data-name="Degradado sin nombre 2" x1="3843.87" y1="10250.39" x2="3843.87" y2="0" gradientUnits="userSpaceOnUse">
      <stop offset="0" stop-color="#61eeff"/>
      <stop offset=".22" stop-color="#68d4fa"/>
      <stop offset=".7" stop-color="#7b93f0"/>
      <stop offset="1" stop-color="#8967e9"/>
    </linearGradient>
  </defs>
  <g id="ventanainicio_higuienebucal">
    <rect id="fondoiniciohiguiene" y="0" width="7687.73" height="10250.39" style="fill: url(#Degradado_sin_nombre_2);"/>
    <g>
      <path d="m1149.6,10048.89l-770.55-311.79c-110.69-44.79-168.78-166.74-133.81-280.91l302.63-988.06c39.57-129.18,181.32-196.7,306.56-146.03l937.54,379.35c125.24,50.68,180.15,197.78,118.75,318.12l-469.62,920.49c-54.26,106.36-180.82,153.6-291.51,108.82Z" style="fill: none; stroke: #fff; stroke-miterlimit: 10; stroke-width: 16px;"/>
      <path d="m474.36,8708.15l441.87,178.79h0c-38.06,91.93,6.09,197.27,98.32,234.59l106.86,43.24c92.07,37.26,196.88-7.51,233.63-99.79l.17-.41,441.45,178.62" style="fill: none; stroke: #fff; stroke-miterlimit: 10; stroke-width: 16px;"/>
    </g>
    <path d="m1435.92,9092.38c680.4-350.01,1662.71-641.34,2410.09-373.15,355.26,134.24,672.32,349.66,979.06,569.89,458.23,329.68,865.11,629.15,1459.53,454.7,282.54-80.23,559.67-237.58,703.17-503.1,145.58-264.32,129.05-605.66-32.71-859.03-70.05-108.91-171.67-205.76-299.07-240.74-134.02-37.26-265.87-.86-337.78,122.88-65.04,111.94-55.15,268.15,39.37,360.66,95.46,94.32,243.31,100.62,368.37,75.9,92.2-17.88,179.95-55.4,259.44-105.09,47.81-29.93,92.83-64.22,134.9-101.77,369.44-337.06,511.04-867.15,467.48-1354.6-19.51-220.85-76.1-437.79-161.5-642.2-205.21-447.28-353.45-918.61-465.44-1397.29-102.99-441.99-175.87-891.45-208.96-1344.22-26.49-377.06-26.97-757.89,28.23-1132.51,35.24-233.61,92.43-466.11,193.58-680.46,97.69-193.18,175.33-399.9,197.14-616.5,23.75-222.61-19.88-464.77-174.76-634.16-155.6-172.9-390.41-234.26-616.77-219.59-226.79,14.13-444.45,93.66-644.32,198.56-201.45,104.15-393.82,225.08-578.9,355.99-185.73,130.27-363.33,271.89-551.89,398.19-341.13,230.97-658.6,330.84-1071.95,285.17-75.19-8.39-150.75-18.31-223.05-41.47-145.61-44.13-273.21-142.16-352.1-272.41-80.95-129.15-116.47-279.74-145.59-427.63-8.82-39.24-14.41-79.51-14.06-119.8-.51-195.68,131.14-360.08,314.63-421.48,173.87-59.24,365.85-14.05,484.62,128.78,56.51,66.89,96.45,149.05,106.66,236.5,9.41,75.49-1.84,152.21-24.85,224.31-8.69,27.06-19.67,53.55-34.26,78-14.55,24.48-32.94,46.9-55.24,64.71-29.64,24.01-65.91,38.78-103.16,45.93-93.73,16.99-189.36-1.27-281.89-17.6-148.39-28.45-296.26-62.28-447.22-73.89-379.99-34.03-705.56,91.43-979.18,355.33-6.85,6.51-13.63,13.09-20.35,19.73-59.98,60.44-130.45,110.54-207.75,146.36-450.22,206.77-956.72-86.76-1012.64-577.42-56.08-480.84,365.87-892.04,845.98-825.45-478.51-66.23-901.73,343.57-845.25,825.36,43.75,395.38,397.19,686.28,794.2,637.8,164.83-18.63,319.95-98.26,434.45-217.74,16.96-16.47,34.27-32.58,51.91-48.32,84.64-75.53,177.58-142.22,278.41-194.45,375.82-193.92,715.25-130.8,1107.89-49.74,74.13,13.47,149.23,26.51,224.83,23.79,104.2-3.69,180.74-45.17,225.98-140.7,53.57-119.5,67.97-261.99,16.61-384.64-18.94-45.7-45.65-88.08-77.44-125.91-90.42-108.77-229.93-164.76-370.91-150.94-217.93,19.26-408.56,189.82-421.43,413.47-2.56,39.93.12,80.19,7.44,119.51,24.2,120.06,48.37,241.49,98.41,353.95,77.08,179.19,214.91,313.2,402.58,370.55,72.02,23.03,147.32,32.85,222.24,41.17,412.96,45.36,728.84-54.74,1068.68-285.03,188.41-126.36,365.92-268.09,551.54-398.45,216.18-152.71,441.96-293.12,681.07-407.17,171.44-79.6,355.48-137.33,544.92-149.15,228.07-14.89,465.07,47.01,622.04,221.38,156.22,170.78,200.65,414.87,176.81,639.29-21.8,217.51-99.49,424.96-197.45,618.95-100.72,213.75-157.57,445.54-192.57,678.46-54.9,374.05-54.21,754.28-27.55,1130.77,33.3,452.28,106.36,901.27,209.49,1342.75,112.12,478.12,260.49,948.88,465.72,1395.55,85.9,205.3,142.86,423.23,162.58,645.1,44.2,490.73-98.49,1024.28-470.32,1363.75-42.52,37.99-88.02,72.69-136.35,102.98-80.64,50.46-169.59,88.54-263.19,106.73-128.57,25.67-280.42,18.4-378.64-78.82-98.41-96.36-109.02-258.05-41.43-374.69,75.02-129.19,212.62-166.94,351.08-128.57,130.3,35.64,234.49,134.29,306.18,245.7,209.26,331.59,174.24,771.09-100.82,1055.63-154.66,162.75-362.73,264.22-576.28,325.73-504.65,147.51-880.11-37.6-1286.23-324.61-338.28-239.79-673.34-491.39-1056.08-656.97-740.67-324.56-1703.91-51.98-2401.53,280.33-16.97,8.25-33.87,16.61-50.7,25.12-16.79,8.52-33.62,17.18-50.06,26.08l-7.69-14.03h0Z" style="fill: #fff;"/>
    <path d="m6880.32,1370.34c0,148.9-72.44,146.83-72.44,146.83,0,0,72.44,17.13,72.44,177.5,0-155.34,72.44-177.5,72.44-177.5,0,0-72.44,2.07-72.44-146.83Z" style="fill: #fff;"/>
    <path d="m402.32,3203.34c0,148.9-72.44,146.83-72.44,146.83,0,0,72.44,17.13,72.44,177.5,0-155.34,72.44-177.5,72.44-177.5,0,0-72.44,2.07-72.44-146.83Z" style="fill: #fff;"/>
    <path d="m1335.32,6367.34c0,148.9-72.44,146.83-72.44,146.83,0,0,72.44,17.13,72.44,177.5,0-155.34,72.44-177.5,72.44-177.5,0,0-72.44,2.07-72.44-146.83Z" style="fill: #fff;"/>
    <path d="m1212.32,9588.34c0,148.9-72.44,146.83-72.44,146.83,0,0,72.44,17.13,72.44,177.5,0-155.34,72.44-177.5,72.44-177.5,0,0-72.44,2.07-72.44-146.83Z" style="fill: #fff;"/>
    <path d="m988.99,1062.58c0,97.19-47.28,95.84-47.28,95.84,0,0,47.28,11.18,47.28,115.85,0-101.39,47.28-115.85,47.28-115.85,0,0-47.28,1.35-47.28-95.84Z" style="fill: #fff;"/>
    <path d="m5978.99,9418.58c0,97.19-47.28,95.84-47.28,95.84,0,0,47.28,11.18,47.28,115.85,0-101.39,47.28-115.85,47.28-115.85,0,0-47.28,1.35-47.28-95.84Z" style="fill: #fff;"/>
    <path d="m6983.99,2444.58c0,97.19-47.28,95.84-47.28,95.84,0,0,47.28,11.18,47.28,115.85,0-101.39,47.28-115.85,47.28-115.85,0,0-47.28,1.35-47.28-95.84Z" style="fill: #fff;"/>
    <path d="m907.99,7915.58c0,97.19-47.28,95.84-47.28,95.84,0,0,47.28,11.18,47.28,115.85,0-101.39,47.28-115.85,47.28-115.85,0,0-47.28,1.35-47.28-95.84Z" style="fill: #fff;"/>
    <path d="m1625.99,4055.58c0,97.19-47.28,95.84-47.28,95.84,0,0,47.28,11.18,47.28,115.85,0-101.39,47.28-115.85,47.28-115.85,0,0-47.28,1.35-47.28-95.84Z" style="fill: #fff;"/>
    <path d="m1578.99,2159.58c0,97.19-47.28,95.84-47.28,95.84,0,0,47.28,11.18,47.28,115.85,0-101.39,47.28-115.85,47.28-115.85,0,0-47.28,1.35-47.28-95.84Z" style="fill: #fff;"/>
    <path d="m861.11,717.5c0,268.13-130.45,264.41-130.45,264.41,0,0,130.45,30.85,130.45,319.62,0-279.73,130.45-319.62,130.45-319.62,0,0-130.45,3.72-130.45-264.41Z" style="fill: #fff;"/>
    <path d="m7226.11,6678.5c0,268.13-130.45,264.41-130.45,264.41,0,0,130.45,30.85,130.45,319.62,0-279.73,130.45-319.62,130.45-319.62,0,0-130.45,3.72-130.45-264.41Z" style="fill: #fff;"/>
    <path d="m394.11,7719.5c0,268.13-130.45,264.41-130.45,264.41,0,0,130.45,30.85,130.45,319.62,0-279.73,130.45-319.62,130.45-319.62,0,0-130.45,3.72-130.45-264.41Z" style="fill: #fff;"/>
    <path d="m727.55,8804.49c182.67-82.59,354.13-189.73,512.65-312.19,384.8-296.68,685.83-722.36,677.72-1224.73-1.68-200.74-50.08-398.97-126.75-583.86-31.87-77.15-71.11-151.19-116.55-221.21-90.99-140.54-206.1-263.69-328.53-377.26-220.59-205.39-468.9-383.89-659.98-619.35-84.85-104.44-156.43-220.31-206.16-345.57-87.43-219.28-107.09-461.7-79-694.89,17.43-133.06,55.57-266.94,133.99-377.47,100.78-144.07,264.66-219.65,439.74-198.05,167.9,19.85,323.83,121.01,411.41,265.48,71.22,115.43,92,258.4,62.07,390.2-14.32,65.89-39.68,129.1-72.06,188.12-32.39,59.11-76.19,112.68-130.89,152.47-176.91,129.24-405.18,75.15-551.06-74.42-41.65-41.73-76.56-89.82-105.64-141.02-37.75-65.5-69.54-134.5-94.07-206.02-181.8-522.44,57.5-1106.37,537.72-1372.43,152.28-84.66,324.57-132.44,498.63-139.21,18.27-.75,38.33-1,56.63-.84,79.73.47,159.19,10.3,237.5,24.44,33.08,4.88,66.9,5.95,100,.87,149.07-21.83,211.85-161.85,206.13-300.06-7.55-200.89-132.57-395.41-316.94-478.23-91.74-41.92-194.86-54.9-294.81-45.22-133.92,12.83-261.81,61.89-379.54,125.37,58.98-31.9,120.16-59.94,183.6-81.8,157.01-55.15,336.57-69.76,491.01,1.08,184.75,82.81,310.11,277.53,317.84,478.76,5.68,139.37-57.03,279.19-207.06,301.6-33.27,5.13-67.25,4.09-100.46-.78-65.99-11.79-132.61-20.68-199.6-23.23-16.41-.64-33.76-.98-50.25-.96-184.32.31-368.35,46.48-530.39,134.48-295.55,158.94-513.58,452.38-582.22,780.67-56.83,264.41-12.96,541.15,118.26,777.16,10.09,18.05,20.7,36.59,31.76,54.07,42.49,66.85,96.91,126.73,162.28,171.77,123.81,87.17,289.74,111.14,425.01,35.81,104.21-56.07,171.86-160,213.31-268.1,48.85-123.82,57.78-265.36,10.57-391.02-80.06-219.86-315.36-373.61-549.26-352.68-193.69,16.67-334.2,152.98-403.57,328.18-56.26,139.82-72.8,292.51-72.16,442.31-.04,233.82,57.25,468.97,180.07,669.06,192.81,318.63,507.05,531.59,775.43,781,147.99,136.67,285.3,288.35,382.97,465.66,20.4,36.83,39.02,74.67,55.94,113.23,90.01,208.26,144.56,434.56,137.92,662.34-16.75,679.74-577.55,1197.5-1150.98,1480.02-15.28,7.28-30.41,14.49-46.03,21.21,0,0-6.24-14.73-6.24-14.73h0Z" style="fill: #fff;"/>
  </g>
</svg>