<?xml version="1.0" encoding="UTF-8"?>
<svg id="Capa_2" data-name="Capa 2" xmlns="http://www.w3.org/2000/svg" viewBox="0 0 1393.85 1393.85">
  <g id="icono_higuienebucal">
    <g>
      <circle cx="696.92" cy="696.92" r="696.92" style="fill: #61eeff;"/>
      <g>
        <path d="m835.15,566.01l-77.96,40.76c-7.43,3.88-15.77,3.88-23.2,0l-77.93-40.74c-13.01-6.8-27.33-8.75-41.12-5.2-40.91,10.51-71.78,58.42-68.31,114.86l22.97,179.96c3.28,18.76,4.67,37.97,4.13,57.17-1.58,55.82-2.84,180.9,15.01,236.1,7.47,20.73,12.25,24.02,20.2,27.1,3.26,1.26,6.66,1.82,10.07,1.82h2.38c.39,0,.77,0,1.16-.03,12.24-.56,22.9-7.78,27.1-22.36l62.84-218.04c3.86-11.3,10.01-19.68,17.27-25.12,9.72-7.29,21.91-7.29,31.64,0,7.26,5.44,13.42,13.82,17.27,25.12l62.84,218.04c4.2,14.58,14.86,21.8,27.1,22.36.38.02.77.03,1.16.03h2.38c3.41,0,6.81-.56,10.07-1.82,7.95-3.08,12.73-6.36,20.2-27.1,17.85-55.2,16.59-180.28,15.01-236.1-.54-19.2.85-38.41,4.13-57.17l22.97-179.96c3.52-57.16-28.2-105.58-69.89-115.25-13.29-3.08-27.01-.96-39.51,5.57Z" style="fill: #e9f3f4;"/>
        <path d="m896.71,201.79l-128.44,67.15c-12.24,6.4-25.98,6.4-38.23,0l-128.39-67.12c-21.43-11.2-45.02-14.41-67.74-8.58-67.4,17.31-118.26,96.25-112.54,189.24l37.85,296.5c5.4,30.91,7.7,62.55,6.8,94.19-2.6,91.97-4.68,298.04,24.73,388.98,12.31,34.16,20.18,39.57,33.28,44.65,5.37,2.08,10.98,3,16.6,3h3.93c.64,0,1.27-.01,1.91-.04,20.17-.92,37.72-12.82,44.65-36.84l103.53-359.23c6.36-18.61,16.5-32.42,28.46-41.38,16.02-12.01,36.1-12.01,52.13,0,11.96,8.97,22.1,22.77,28.46,41.38l103.53,359.23c6.92,24.02,24.48,35.92,44.65,36.84.63.03,1.27.04,1.91.04h3.93c5.62,0,11.23-.92,16.6-3,13.09-5.07,20.97-10.48,33.28-44.65,29.41-90.94,27.34-297.01,24.73-388.98-.9-31.63,1.4-63.28,6.8-94.19l37.85-296.5c5.8-94.18-46.46-173.95-115.14-189.87-21.9-5.08-44.5-1.58-65.09,9.18Z" style="fill: #fff;"/>
        <path d="m398.34,160.84c0,77.73-37.82,76.65-37.82,76.65,0,0,37.82,8.94,37.82,92.66,0-81.09,37.82-92.66,37.82-92.66,0,0-37.82,1.08-37.82-76.65Z" style="fill: #fff;"/>
        <path d="m1068.26,1057.62c0,77.73-37.82,76.65-37.82,76.65,0,0,37.82,8.94,37.82,92.66,0-81.09,37.82-92.66,37.82-92.66,0,0-37.82,1.08-37.82-76.65Z" style="fill: #fff;"/>
        <path d="m385.63,407.37c0,50.74-24.68,50.03-24.68,50.03,0,0,24.68,5.84,24.68,60.48,0-52.93,24.68-60.48,24.68-60.48,0,0-24.68.7-24.68-50.03Z" style="fill: #fff;"/>
        <path d="m1115.22,981.87c0,50.74-24.68,50.03-24.68,50.03,0,0,24.68,5.84,24.68,60.48,0-52.93,24.68-60.48,24.68-60.48,0,0-24.68.7-24.68-50.03Z" style="fill: #fff;"/>
        <path d="m318.88,227.23c0,139.98-68.1,138.03-68.1,138.03,0,0,68.1,16.11,68.1,166.85,0-146.03,68.1-166.85,68.1-166.85,0,0-68.1,1.94-68.1-138.03Z" style="fill: #fff;"/>
      </g>
    </g>
  </g>
</svg>